<?xml version="1.0" encoding="UTF-8"?>
<svg id="_Слой_1" data-name="Слой 1" xmlns="http://www.w3.org/2000/svg" xmlns:xlink="http://www.w3.org/1999/xlink" viewBox="0 0 1300 900">
  <defs>
    <style>
      .cls-1 {
        fill: url(#_Безымянный_градиент_13-2);
      }

      .cls-1, .cls-2, .cls-3, .cls-4, .cls-5 {
        stroke-width: 0px;
      }

      .cls-2 {
        fill: url(#_Безымянный_градиент_10-2);
      }

      .cls-3 {
        fill: #000;
      }

      .cls-4 {
        fill: url(#_Безымянный_градиент_13);
      }

      .cls-5 {
        fill: url(#_Безымянный_градиент_10);
      }
    </style>
    <linearGradient id="_Безымянный_градиент_10" data-name="Безымянный градиент 10" x1="421.6" y1="425.9" x2="486.19" y2="425.9" gradientUnits="userSpaceOnUse">
      <stop offset="0" stop-color="#0052ff"/>
      <stop offset="1" stop-color="#009eff"/>
    </linearGradient>
    <linearGradient id="_Безымянный_градиент_10-2" data-name="Безымянный градиент 10" x1="421.6" y1="464.74" x2="473.95" y2="464.74" xlink:href="#_Безымянный_градиент_10"/>
    <linearGradient id="_Безымянный_градиент_13" data-name="Безымянный градиент 13" x1="425.87" y1="490.17" x2="425.88" y2="490.17" gradientUnits="userSpaceOnUse">
      <stop offset="0" stop-color="#dba203"/>
      <stop offset="1" stop-color="#ffc000"/>
    </linearGradient>
    <linearGradient id="_Безымянный_градиент_13-2" data-name="Безымянный градиент 13" x1="424.8" y1="484.77" x2="450.85" y2="484.77" xlink:href="#_Безымянный_градиент_13"/>
  </defs>
  <g>
    <path class="cls-3" d="M549.57,423.22v-6.81h-40.91v69.86h11.48v-28.35h24.27c2.3,0,4.17-1.87,4.17-4.17v-6.8h-28.44v-19.56h25.26c2.3,0,4.17-1.87,4.17-4.17Z"/>
    <path class="cls-3" d="M557.65,436.37v49.9h10.77v-49.9h-10.77ZM567.93,417.21c-1.34-1.4-2.97-2.09-4.9-2.09s-3.55.69-4.89,2.09c-1.34,1.34-2,2.93-2,4.79s.66,3.49,2,4.89c1.4,1.34,3.03,2,4.89,2s3.46-.66,4.79-2c1.4-1.4,2.09-3.03,2.09-4.89s-.66-3.46-1.98-4.79Z"/>
    <path class="cls-3" d="M617.43,440.61c-3.49-3.69-8.13-5.53-13.92-5.53-6.99,0-12.14,2.57-15.47,7.68v-6.39h-10.77v49.9h10.77v-26.75c0-4.72,1.14-8.3,3.4-10.72,2.26-2.43,5.36-3.64,9.28-3.64,3.46,0,6.19,1,8.19,3,2,2,3,4.85,3,8.57v29.54h10.77v-30.63c0-6.33-1.75-11.32-5.24-15.03Z"/>
    <path class="cls-3" d="M714.46,461.41c0-7.31-2.35-13.54-7.08-18.65-4.72-5.12-10.71-7.68-17.96-7.68-7.79,0-14.1,2.52-18.96,7.57-4.93,5.07-7.39,11.28-7.39,18.67s2.5,13.87,7.5,18.87c5.05,4.92,11.6,7.37,19.65,7.37,9.71,0,16.99-3.63,21.85-10.88l-8.88-5.19c-2.92,4.13-7.22,6.19-12.87,6.19-4.18,0-7.7-1.03-10.52-3.09-2.83-2.06-4.64-4.96-5.44-8.68h39.71c.26-1.66.4-3.16.4-4.5ZM674.26,457.12c.72-3.79,2.43-6.78,5.09-8.97,2.66-2.2,5.99-3.3,9.97-3.3,3.67,0,6.78,1.08,9.34,3.2,2.55,2.14,4.21,5.16,4.93,9.08h-29.33Z"/>
    <path class="cls-3" d="M732.73,444.76v-8.39h-10.79v49.9h10.79v-25.15c0-5.12,1.52-8.79,4.58-10.97,3.13-2.27,6.65-3,10.79-3v-10.79c-7.51,0-12.64,2.2-15.36,8.39Z"/>
    <path class="cls-3" d="M754.08,436.37v49.9h10.77v-49.9h-10.77ZM764.35,417.21c-1.32-1.4-2.95-2.09-4.89-2.09s-3.55.69-4.89,2.09c-1.34,1.34-2,2.93-2,4.79s.66,3.49,2,4.89c1.4,1.34,3.03,2,4.89,2s3.46-.66,4.79-2c1.4-1.4,2.09-3.03,2.09-4.89s-.66-3.46-2-4.79Z"/>
    <path class="cls-3" d="M817.53,442.65c-5.05-5.05-11.28-7.57-18.65-7.57s-13.61,2.52-18.67,7.57c-5.12,5.13-7.68,11.35-7.68,18.67s2.57,13.54,7.68,18.67c5.05,5.05,11.28,7.57,18.67,7.57s13.6-2.52,18.65-7.57c5.13-5.13,7.68-11.35,7.68-18.67s-2.55-13.54-7.68-18.67ZM809.96,472.6c-3,3-6.7,4.49-11.08,4.49s-8.08-1.49-11.08-4.49c-3-3-4.5-6.76-4.5-11.28s1.51-8.28,4.5-11.28c3-3,6.68-4.49,11.08-4.49s8.08,1.49,11.08,4.49c2.98,3,4.49,6.76,4.49,11.28s-1.51,8.28-4.49,11.28Z"/>
    <path class="cls-3" d="M873.17,440.61c-3.49-3.69-8.13-5.53-13.92-5.53-6.99,0-12.14,2.57-15.47,7.68v-6.39h-10.77v49.9h10.77v-26.75c0-4.72,1.14-8.3,3.4-10.72,2.26-2.43,5.36-3.64,9.28-3.64,3.46,0,6.19,1,8.19,3,2,2,3,4.85,3,8.57v29.54h10.77v-30.63c0-6.33-1.75-11.32-5.24-15.03Z"/>
    <path class="cls-3" d="M660.09,436.37h-12.38v-13.97l-10.77,3.2v10.77h-9.19v10.39h28.17c2.3,0,4.17-1.87,4.17-4.17v-6.21Z"/>
    <path class="cls-3" d="M647.71,446.75l-10.77,3.25v20.71c0,6.51,1.8,10.98,5.39,13.41,3.58,2.43,9.51,3.15,17.76,2.15v-9.68c-2.73.12-5.01.14-6.84.05-1.83-.11-3.21-.6-4.15-1.51-.94-.89-1.4-2.37-1.4-4.42v-23.95Z"/>
  </g>
  <g>
    <path class="cls-5" d="M486.19,403.14v22.74c0,2.29-1.51,4.32-3.72,4.96l-60.88,17.84v-22.74c0-2.29,1.51-4.32,3.72-4.96l60.88-17.84Z"/>
    <g>
      <path class="cls-2" d="M425.31,453.55c-2.2.65-3.72,2.67-3.72,4.96v24.15c0,3.13,1.67,5.96,4.27,7.51-2.35-5.51-1.37-9.98,8.4-12.64l16.58-4.86,19.39-5.67c2.2-.64,3.72-2.67,3.72-4.96v-22.74l-48.64,14.24Z"/>
      <path class="cls-4" d="M425.87,490.17h.01s0,0-.01,0c0,0,0,0,0,0Z"/>
      <path class="cls-1" d="M434.27,477.53c-9.77,2.66-10.75,7.13-8.41,12.63l.02.02h0c1.33.58,2.7,1.07,4.09,1.48l17.38,5.09c1.75.51,3.49-.8,3.49-2.62v-21.46l-16.58,4.86Z"/>
    </g>
  </g>
</svg>