<?xml version="1.0" encoding="utf-8"?>
<!-- Generator: Adobe Illustrator 24.2.3, SVG Export Plug-In . SVG Version: 6.00 Build 0)  -->
<svg version="1.1" id="Laag_1" xmlns="http://www.w3.org/2000/svg" xmlns:xlink="http://www.w3.org/1999/xlink" x="0px" y="0px"
	 viewBox="0 0 15.43 15.46" style="enable-background:new 0 0 15.43 15.46;" xml:space="preserve">
<style type="text/css">
	.st0{fill:#6C5FC7;}
	.st1{opacity:0.25;fill:#1D1D1B;}
	.st2{fill:#1D1D1B;}
	.st3{fill:#FFFFFF;}
</style>
<g>
	<path class="st0" d="M6.4,15.46H3.58H1.14c-0.4,0-0.76-0.2-0.97-0.53c-0.21-0.33-0.23-0.75-0.06-1.1l3.21-6.66
		C3.45,6.91,3.76,6.8,4.01,6.92c0.26,0.12,0.36,0.43,0.24,0.69l-3.21,6.66c-0.02,0.05-0.01,0.08,0.01,0.11
		c0.01,0.02,0.04,0.05,0.09,0.05h2.85H6.4c0.28,0,0.52,0.23,0.52,0.52S6.69,15.46,6.4,15.46z"/>
	<path class="st1" d="M6.92,14.94c0,0.09-0.02,0.17-0.06,0.24c-0.07,0.13-0.2,0.23-0.35,0.27c-0.03,0.01-0.07,0.01-0.1,0.01H3.28
		l0.97-1.03H6.4C6.69,14.43,6.92,14.66,6.92,14.94z"/>
	<path class="st2" d="M15.3,5.39l-2.16-0.7c0-0.04,0-0.08,0-0.12l2.29-0.22l-2.36-0.49c-0.05-0.25-0.13-0.48-0.24-0.7
		c0.93-1.62,0.15-3.14,0.15-3.14c-1.37-0.16-2.27,0.49-2.7,0.9c-0.18,0.18-0.43,0.27-0.68,0.26L7.7,1.18
		c-0.25,0-0.49-0.09-0.66-0.26C6.6,0.51,5.7-0.14,4.34,0.03c0,0-0.78,1.52,0.15,3.14C4.38,3.38,4.3,3.61,4.25,3.85L1.78,4.36
		l2.4,0.23c0,0.02,0,0.05,0,0.07L1.9,5.39l2.34-0.04c0.01,0.03,0.01,0.06,0.02,0.09L2.08,6.15l2.44-0.04
		c0.38,0.72,1.14,1.41,2.57,1.91c0,0,0.76,0.33,0,1.52c-0.76,1.19-2.29,3.43-1.29,5.91l5.74,0l-0.01,0c1-2.48-0.52-4.72-1.29-5.91
		c-0.76-1.19,0-1.52,0-1.52c1.42-0.5,2.18-1.19,2.57-1.91l2.33,0.04l-2.08-0.68c0.01-0.04,0.02-0.08,0.03-0.12L15.3,5.39z"/>
	<g>
		<path class="st3" d="M11.72,3.9c0,0-0.1,1.1-0.76,1.55c-0.03,0.03-0.05,0.04-0.08,0.06c-0.14,0.08-0.3,0.12-0.46,0.14
			c-0.06,0.01-0.13,0.02-0.2,0.02h-0.05c-0.08,0-0.16-0.01-0.24-0.02C9.46,5.59,9.07,5.4,9.07,5.4s0.1-1.1,0.76-1.54
			C9.86,3.83,9.88,3.82,9.91,3.8c0.2-0.11,0.43-0.16,0.65-0.16h0.03c0.08,0,0.16,0,0.24,0.01s0.16,0.02,0.24,0.04
			C11.44,3.76,11.72,3.9,11.72,3.9z"/>
		<g>
			<path class="st0" d="M10.96,5.45c-0.03,0.03-0.05,0.04-0.08,0.06c-0.14,0.08-0.3,0.12-0.46,0.14c-0.06,0.01-0.13,0.02-0.2,0.02
				L9.83,3.86C9.86,3.83,9.88,3.82,9.91,3.8c0.2-0.11,0.43-0.16,0.65-0.16L10.96,5.45z"/>
		</g>
		<path class="st3" d="M8.15,5.4c0,0-0.28,0.14-0.65,0.22c-0.04,0-0.08,0.01-0.12,0.02c-0.04,0-0.08,0-0.12,0.01
			C7.18,5.66,7.1,5.67,7.02,5.67c-0.14,0-0.27-0.02-0.41-0.06c-0.09-0.02-0.18-0.05-0.27-0.1C5.61,5.09,5.5,3.9,5.5,3.9
			s0.35-0.17,0.78-0.24c0.02,0,0.05-0.01,0.08-0.01C6.44,3.64,6.52,3.64,6.6,3.64c0.09-0.01,0.17,0,0.25,0.01
			c0.07,0.01,0.14,0.02,0.21,0.04C7.15,3.72,7.23,3.76,7.31,3.8C8.04,4.21,8.15,5.4,8.15,5.4z"/>
		<g>
			<path class="st0" d="M7.38,5.64c-0.04,0-0.08,0-0.12,0.01C7.18,5.66,7.1,5.67,7.02,5.67c-0.14,0-0.27-0.02-0.41-0.06L6.28,3.66
				c0.02,0,0.05-0.01,0.08-0.01C6.44,3.64,6.52,3.64,6.6,3.64c0.09-0.01,0.17,0,0.25,0.01c0.07,0.01,0.14,0.02,0.21,0.04L7.38,5.64z
				"/>
		</g>
	</g>
</g>
<g>
	<path class="st0" d="M11.51,15.46h-0.64c0.85-2.4-0.61-4.55-1.35-5.71c-0.77-1.19,0-1.52,0-1.52c0.47-0.15,0.89-0.29,1.25-0.42
		c-0.17,0.07-0.35,0.14-0.54,0.21c0,0-0.77,0.34,0,1.53C10.99,10.74,12.51,12.98,11.51,15.46z"/>
</g>
</svg>
