<svg xmlns="http://www.w3.org/2000/svg" viewBox="0 0 1200 520" width="1200" height="520">
<defs>
<style>
@keyframes fi{from{opacity:0}to{opacity:1}}
@keyframes pl{0%,100%{opacity:.55}50%{opacity:1}}
.a0{opacity:0;animation:fi .5s .05s both}
.a1{opacity:0;animation:fi .5s .2s both}
.a2{opacity:0;animation:fi .5s .35s both}
.a5{opacity:0;animation:fi .5s .8s both}
.a7{opacity:0;animation:fi .5s 1.1s both}
.pl{animation:pl 2.4s infinite}
</style>
<pattern id="gp" width="22" height="22" patternUnits="userSpaceOnUse">
<circle cx="11" cy="11" r=".55" fill="#1c1c27"/>
</pattern>
<radialGradient id="glow" gradientUnits="userSpaceOnUse" cx="600" cy="260" r="500">
<stop offset="0" stop-color="#22d3ee" stop-opacity=".09"/>
<stop offset="1" stop-color="#22d3ee" stop-opacity="0"/>
</radialGradient>
<radialGradient id="fglow" gradientUnits="userSpaceOnUse" cx="600" cy="270" r="260">
<stop offset="0" stop-color="#22d3ee" stop-opacity=".22"/>
<stop offset=".6" stop-color="#22d3ee" stop-opacity=".05"/>
<stop offset="1" stop-color="#22d3ee" stop-opacity="0"/>
</radialGradient>
<linearGradient id="hdr" gradientUnits="userSpaceOnUse" x1="0" y1="60" x2="0" y2="120">
<stop offset="0" stop-color="#ffffff" stop-opacity="1"/>
<stop offset="1" stop-color="#b0d8e8" stop-opacity="1"/>
</linearGradient>
<linearGradient id="fcard" gradientUnits="userSpaceOnUse" x1="380" y1="180" x2="820" y2="420">
<stop offset="0" stop-color="#0d1a1d" stop-opacity="1"/>
<stop offset="1" stop-color="#0a1416" stop-opacity="1"/>
</linearGradient>
<linearGradient id="border" gradientUnits="userSpaceOnUse" x1="380" y1="180" x2="820" y2="420">
<stop offset="0" stop-color="#22d3ee" stop-opacity=".5"/>
<stop offset=".5" stop-color="#22d3ee" stop-opacity=".9"/>
<stop offset="1" stop-color="#22d3ee" stop-opacity=".5"/>
</linearGradient>
</defs>

<rect width="1200" height="520" fill="#07070a" rx="14"/>
<rect width="1200" height="520" fill="url(#gp)" rx="14"/>
<rect width="1200" height="520" fill="url(#glow)" rx="14"/>

<g class="a0">
<rect x="40" y="40" width="11" height="11" rx="2" fill="#22d3ee"/>
<text x="60" y="50" font-family="system-ui,-apple-system,sans-serif" font-size="9" fill="#22d3ee" letter-spacing="2" font-weight="700">ANALYTICS INTEGRATION PARTNERS</text>
</g>
<text class="a1" x="40" y="100" font-family="system-ui,-apple-system,sans-serif" font-size="38" font-weight="700" fill="url(#hdr)">Backtest Analytics for Teams</text>
<text class="a2" x="40" y="130" font-family="system-ui,-apple-system,sans-serif" font-size="14" fill="#9898b0">Search, filter, compare, annotate and share thousands of backtests in a server-backed UI.</text>

<rect x="200" y="160" width="800" height="300" fill="url(#fglow)"/>

<g class="a5">
<rect x="212" y="182" width="776" height="272" rx="20" fill="#22d3ee" opacity=".08"/>
<rect x="216" y="186" width="768" height="264" rx="18" fill="url(#fcard)" stroke="url(#border)" stroke-width="1.5"/>

<rect x="240" y="212" width="148" height="22" rx="11" fill="#0a1416" stroke="#22d3ee" stroke-opacity=".5" stroke-width="1"/>
<circle class="pl" cx="254" cy="223" r="3" fill="#22d3ee"/>
<text x="264" y="227" font-family="system-ui,-apple-system,sans-serif" font-size="9" fill="#22d3ee" letter-spacing="1.5" font-weight="700">FEATURED PARTNER</text>

<!-- Finterion logo (dark variant - white wordmark) -->
<g transform="translate(232, 244) scale(0.42) translate(-415, -395)">
  <!-- F mark (gradients) -->
  <path d="M486.19,403.14v22.74c0,2.29-1.51,4.32-3.72,4.96l-60.88,17.84v-22.74c0-2.29,1.51-4.32,3.72-4.96l60.88-17.84Z" fill="#0091ff"/>
  <path d="M425.31,453.55c-2.2.65-3.72,2.67-3.72,4.96v24.15c0,3.13,1.67,5.96,4.27,7.51-2.35-5.51-1.37-9.98,8.4-12.64l16.58-4.86,19.39-5.67c2.2-.64,3.72-2.67,3.72-4.96v-22.74l-48.64,14.24Z" fill="#0078ff"/>
  <path d="M434.27,477.53c-9.77,2.66-10.75,7.13-8.41,12.63l.02.02c1.33.58,2.7,1.07,4.09,1.48l17.38,5.09c1.75.51,3.49-.8,3.49-2.62v-21.46l-16.58,4.86Z" fill="#ffc000"/>
  <!-- wordmark "interion" in white -->
  <g fill="#ffffff">
    <path d="M549.57,423.22v-6.81h-40.91v69.86h11.48v-28.35h24.27c2.3,0,4.17-1.87,4.17-4.17v-6.8h-28.44v-19.56h25.26c2.3,0,4.17-1.87,4.17-4.17Z"/>
    <path d="M557.65,436.37v49.9h10.77v-49.9h-10.77ZM567.93,417.21c-1.34-1.4-2.97-2.09-4.9-2.09s-3.55.69-4.89,2.09c-1.34,1.34-2,2.93-2,4.79s.66,3.49,2,4.89c1.4,1.34,3.03,2,4.89,2s3.46-.66,4.79-2c1.4-1.4,2.09-3.03,2.09-4.89s-.66-3.46-1.98-4.79Z"/>
    <path d="M617.43,440.61c-3.49-3.69-8.13-5.53-13.92-5.53-6.99,0-12.14,2.57-15.47,7.68v-6.39h-10.77v49.9h10.77v-26.75c0-4.72,1.14-8.3,3.4-10.72,2.26-2.43,5.36-3.64,9.28-3.64,3.46,0,6.19,1,8.19,3,2,2,3,4.85,3,8.57v29.54h10.77v-30.63c0-6.33-1.75-11.32-5.24-15.03Z"/>
    <path d="M714.46,461.41c0-7.31-2.35-13.54-7.08-18.65-4.72-5.12-10.71-7.68-17.96-7.68-7.79,0-14.1,2.52-18.96,7.57-4.93,5.07-7.39,11.28-7.39,18.67s2.5,13.87,7.5,18.87c5.05,4.92,11.6,7.37,19.65,7.37,9.71,0,16.99-3.63,21.85-10.88l-8.88-5.19c-2.92,4.13-7.22,6.19-12.87,6.19-4.18,0-7.7-1.03-10.52-3.09-2.83-2.06-4.64-4.96-5.44-8.68h39.71c.26-1.66.4-3.16.4-4.5ZM674.26,457.12c.72-3.79,2.43-6.78,5.09-8.97,2.66-2.2,5.99-3.3,9.97-3.3,3.67,0,6.78,1.08,9.34,3.2,2.55,2.14,4.21,5.16,4.93,9.08h-29.33Z"/>
    <path d="M732.73,444.76v-8.39h-10.79v49.9h10.79v-25.15c0-5.12,1.52-8.79,4.58-10.97,3.13-2.27,6.65-3,10.79-3v-10.79c-7.51,0-12.64,2.2-15.36,8.39Z"/>
    <path d="M754.08,436.37v49.9h10.77v-49.9h-10.77ZM764.35,417.21c-1.32-1.4-2.95-2.09-4.89-2.09s-3.55.69-4.89,2.09c-1.34,1.34-2,2.93-2,4.79s.66,3.49,2,4.89c1.4,1.34,3.03,2,4.89,2s3.46-.66,4.79-2c1.4-1.4,2.09-3.03,2.09-4.89s-.66-3.46-2-4.79Z"/>
    <path d="M817.53,442.65c-5.05-5.05-11.28-7.57-18.65-7.57s-13.61,2.52-18.67,7.57c-5.12,5.13-7.68,11.35-7.68,18.67s2.57,13.54,7.68,18.67c5.05,5.05,11.28,7.57,18.67,7.57s13.6-2.52,18.65-7.57c5.13-5.13,7.68-11.35,7.68-18.67s-2.55-13.54-7.68-18.67ZM809.96,472.6c-3,3-6.7,4.49-11.08,4.49s-8.08-1.49-11.08-4.49c-3-3-4.5-6.76-4.5-11.28s1.51-8.28,4.5-11.28c3-3,6.68-4.49,11.08-4.49s8.08,1.49,11.08,4.49c2.98,3,4.49,6.76,4.49,11.28s-1.51,8.28-4.49,11.28Z"/>
    <path d="M873.17,440.61c-3.49-3.69-8.13-5.53-13.92-5.53-6.99,0-12.14,2.57-15.47,7.68v-6.39h-10.77v49.9h10.77v-26.75c0-4.72,1.14-8.3,3.4-10.72,2.26-2.43,5.36-3.64,9.28-3.64,3.46,0,6.19,1,8.19,3,2,2,3,4.85,3,8.57v29.54h10.77v-30.63c0-6.33-1.75-11.32-5.24-15.03Z"/>
    <path d="M660.09,436.37h-12.38v-13.97l-10.77,3.2v10.77h-9.19v10.39h28.17c2.3,0,4.17-1.87,4.17-4.17v-6.21Z"/>
    <path d="M647.71,446.75l-10.77,3.25v20.71c0,6.51,1.8,10.98,5.39,13.41,3.58,2.43,9.51,3.15,17.76,2.15v-9.68c-2.73.12-5.01.14-6.84.05-1.83-.11-3.21-.6-4.15-1.51-.94-.89-1.4-2.37-1.4-4.42v-23.95Z"/>
  </g>
</g>

<text x="240" y="324" font-family="system-ui,-apple-system,sans-serif" font-size="14" fill="#e0f5ff" font-weight="500">From thousands of runs to publishable insight.</text>
<text x="240" y="346" font-family="system-ui,-apple-system,sans-serif" font-size="12.5" fill="#9898b0">Rank backtests, plot custom charts, build shareable</text>
<text x="240" y="362" font-family="system-ui,-apple-system,sans-serif" font-size="12.5" fill="#9898b0">reports and let AI agents do the analysis for you.</text>

<g transform="translate(240, 388)">
<rect x="0" y="0" width="78" height="22" rx="11" fill="#0a1416" stroke="#22d3ee" stroke-opacity=".35"/>
<text x="39" y="14.5" font-family="system-ui,-apple-system,sans-serif" font-size="10" fill="#22d3ee" text-anchor="middle" font-weight="600">Build reports</text>

<rect x="86" y="0" width="78" height="22" rx="11" fill="#0a1416" stroke="#22d3ee" stroke-opacity=".35"/>
<text x="125" y="14.5" font-family="system-ui,-apple-system,sans-serif" font-size="10" fill="#22d3ee" text-anchor="middle" font-weight="600">AI agents</text>

<rect x="172" y="0" width="78" height="22" rx="11" fill="#0a1416" stroke="#22d3ee" stroke-opacity=".35"/>
<text x="211" y="14.5" font-family="system-ui,-apple-system,sans-serif" font-size="10" fill="#22d3ee" text-anchor="middle" font-weight="600">Rank runs</text>

<rect x="258" y="0" width="78" height="22" rx="11" fill="#0a1416" stroke="#22d3ee" stroke-opacity=".35"/>
<text x="297" y="14.5" font-family="system-ui,-apple-system,sans-serif" font-size="10" fill="#22d3ee" text-anchor="middle" font-weight="600">Custom charts</text>
</g>

<!-- ===== REPORT BUILDER MOCK (right side) ===== -->
<g transform="translate(620, 210)">
  <rect x="0" y="0" width="344" height="216" rx="10" fill="#0a1416" stroke="#1c2f33"/>
  <rect x="0" y="0" width="344" height="26" rx="10" fill="#0d1a1d"/>
  <rect x="0" y="14" width="344" height="12" fill="#0d1a1d"/>
  <circle cx="14" cy="13" r="3" fill="#fb7185"/>
  <circle cx="26" cy="13" r="3" fill="#fbbf24"/>
  <circle cx="38" cy="13" r="3" fill="#34d399"/>
  <text x="58" y="17" font-family="ui-monospace,SFMono-Regular,Menlo,monospace" font-size="9" fill="#8da3a8">report.html · Q3 Momentum Sweep</text>
  <rect x="288" y="6" width="48" height="14" rx="7" fill="#22d3ee"/>
  <text x="312" y="16" font-family="system-ui,-apple-system,sans-serif" font-size="8" font-weight="700" fill="#0a1416" text-anchor="middle">PUBLISH</text>

  <g transform="translate(12, 36)">
    <rect x="0"   y="0" width="76" height="30" rx="5" fill="#0d1a1d" stroke="#1c2f33"/>
    <text x="6" y="11" font-family="system-ui,-apple-system,sans-serif" font-size="7" fill="#8da3a8" letter-spacing="0.5">SHARPE</text>
    <text x="6" y="24" font-family="system-ui,-apple-system,sans-serif" font-size="11" font-weight="700" fill="#e0f5ff">2.14</text>

    <rect x="82"  y="0" width="76" height="30" rx="5" fill="#0d1a1d" stroke="#1c2f33"/>
    <text x="88" y="11" font-family="system-ui,-apple-system,sans-serif" font-size="7" fill="#8da3a8" letter-spacing="0.5">CAGR</text>
    <text x="88" y="24" font-family="system-ui,-apple-system,sans-serif" font-size="11" font-weight="700" fill="#34d399">+38.2%</text>

    <rect x="164" y="0" width="76" height="30" rx="5" fill="#0d1a1d" stroke="#1c2f33"/>
    <text x="170" y="11" font-family="system-ui,-apple-system,sans-serif" font-size="7" fill="#8da3a8" letter-spacing="0.5">MAX DD</text>
    <text x="170" y="24" font-family="system-ui,-apple-system,sans-serif" font-size="11" font-weight="700" fill="#e0f5ff">-9.4%</text>

    <rect x="246" y="0" width="74" height="30" rx="5" fill="#0d1a1d" stroke="#1c2f33"/>
    <text x="252" y="11" font-family="system-ui,-apple-system,sans-serif" font-size="7" fill="#8da3a8" letter-spacing="0.5">TRADES</text>
    <text x="252" y="24" font-family="system-ui,-apple-system,sans-serif" font-size="11" font-weight="700" fill="#e0f5ff">412</text>
  </g>

  <g transform="translate(12, 76)">
    <rect x="0" y="0" width="194" height="92" rx="5" fill="#0d1a1d" stroke="#1c2f33"/>
    <text x="8" y="12" font-family="system-ui,-apple-system,sans-serif" font-size="7.5" font-weight="700" fill="#e0f5ff">Equity curve</text>
    <text x="8" y="22" font-family="system-ui,-apple-system,sans-serif" font-size="6.5" fill="#8da3a8">momentum_v2 vs. BTC</text>
    <polyline points="8,82 28,74 48,76 70,62 92,66 114,52 134,56 154,40 174,34 186,30 186,86 8,86" fill="#22d3ee" opacity=".15"/>
    <polyline points="8,82 28,74 48,76 70,62 92,66 114,52 134,56 154,40 174,34 186,30" fill="none" stroke="#22d3ee" stroke-width="1.6" stroke-linejoin="round" stroke-linecap="round"/>
    <line x1="8" y1="78" x2="186" y2="58" stroke="#5a6970" stroke-width="1" stroke-dasharray="2 2"/>
  </g>

  <g transform="translate(212, 76)">
    <rect x="0" y="0" width="120" height="92" rx="5" fill="#1a0f2e" stroke="#3b246b"/>
    <circle cx="12" cy="14" r="7" fill="#a78bfa"/>
    <text x="12" y="17" font-family="system-ui,-apple-system,sans-serif" font-size="7" font-weight="700" fill="#1a0f2e" text-anchor="middle">AI</text>
    <text x="24" y="17" font-family="system-ui,-apple-system,sans-serif" font-size="8" font-weight="700" fill="#c4b5fd">Agent note</text>

    <rect x="8" y="28" width="104" height="3" rx="1.5" fill="#5b21b6"/>
    <rect x="8" y="36" width="96"  height="3" rx="1.5" fill="#5b21b6"/>
    <rect x="8" y="44" width="100" height="3" rx="1.5" fill="#5b21b6"/>
    <rect x="8" y="52" width="80"  height="3" rx="1.5" fill="#5b21b6"/>
    <rect x="8" y="60" width="92"  height="3" rx="1.5" fill="#5b21b6"/>
    <text x="8" y="80" font-family="system-ui,-apple-system,sans-serif" font-size="7" fill="#c4b5fd" font-weight="600">Beat benchmark by +22%</text>
  </g>

  <g transform="translate(12, 178)">
    <rect x="0" y="0" width="320" height="24" rx="5" fill="#0a1416" stroke="#1c2f33" stroke-dasharray="3 3"/>
    <text x="160" y="15" font-family="system-ui,-apple-system,sans-serif" font-size="9" fill="#8da3a8" text-anchor="middle">+ chart  ·  + metric  ·  + agent note  ·  + table</text>
  </g>
</g>
</g>

<g class="a7">
<rect x="40" y="464" width="1120" height="36" rx="10" fill="#0d0d14" stroke="#1c1c27"/>

<g transform="translate(72, 482)">
<circle cx="0" cy="0" r="3" fill="#22d3ee"/>
<text x="12" y="4" font-family="system-ui,-apple-system,sans-serif" font-size="11" fill="#9898b0">Rank by Sharpe, CAGR, drawdown…</text>
</g>

<g transform="translate(440, 482)">
<circle cx="0" cy="0" r="3" fill="#a78bfa"/>
<text x="12" y="4" font-family="system-ui,-apple-system,sans-serif" font-size="11" fill="#9898b0">AI agents analyse every run for you</text>
</g>

<g transform="translate(820, 482)">
<circle cx="0" cy="0" r="3" fill="#fbbf24"/>
<text x="12" y="4" font-family="system-ui,-apple-system,sans-serif" font-size="11" fill="#9898b0">Custom charts &amp; shareable reports</text>
</g>
</g>
</svg>
